# xmcd
#
# Track frame offsets: 
#        150
#        16811
#        37598
#        55951
#        75704
#        97563
#
# Disc length: 1553 seconds
#
# Revision: 1
# Processed by: cddbd v1.5.2PL0 Copyright (c) Steve Scherf et al.
# Submitted via: ExactAudioCopyFreeDBPlugin 1.0
#
DISCID=2f060f06
DTITLE=李岗霖 - 第三定律
DYEAR=2010
DGENRE=
TTITLE0=虚拟·爱
TTITLE1=第3定律
TTITLE2=从热爱到深爱
TTITLE3=不能拥抱的天空
TTITLE4=祈祷
TTITLE5=错在我
EXTD=YEAR: 2010
EXTT0=
EXTT1=
EXTT2=
EXTT3=
EXTT4=
EXTT5=
PLAYORDER=
